<svg xmlns="http://www.w3.org/2000/svg" xmlns:xlink="http://www.w3.org/1999/xlink" viewBox="0 0 15 15"><defs><style>.cls-1{fill:none;}.cls-2{fill:#929497;}.cls-3{fill:url(#Unnamed_Pattern_2);}</style><pattern id="Unnamed_Pattern_2" data-name="Unnamed Pattern 2" width="97.75" height="97.75" patternTransform="translate(-81.29 97.75)" patternUnits="userSpaceOnUse" viewBox="0 0 97.75 97.75"><rect class="cls-1" width="97.75" height="97.75"/><rect class="cls-2" width="97.75" height="97.75"/></pattern></defs><title>Instagram</title><g id="Layer_2" data-name="Layer 2"><g id="Layer_1-2" data-name="Layer 1"><path class="cls-3" d="M7.5,1.35c2,0,2.24,0,3,0a4.15,4.15,0,0,1,1.39.26,2.32,2.32,0,0,1,.86.56,2.32,2.32,0,0,1,.56.86,4.15,4.15,0,0,1,.26,1.39c0,.79,0,1,0,3s0,2.24,0,3a4.15,4.15,0,0,1-.26,1.39,2.48,2.48,0,0,1-1.42,1.42,4.15,4.15,0,0,1-1.39.26c-.79,0-1,0-3,0s-2.24,0-3,0a4.15,4.15,0,0,1-1.39-.26,2.32,2.32,0,0,1-.86-.56,2.32,2.32,0,0,1-.56-.86,4.15,4.15,0,0,1-.26-1.39c0-.79,0-1,0-3s0-2.24,0-3a4.15,4.15,0,0,1,.26-1.39,2.32,2.32,0,0,1,.56-.86,2.32,2.32,0,0,1,.86-.56A4.15,4.15,0,0,1,4.47,1.4c.79,0,1,0,3,0M7.5,0c-2,0-2.29,0-3.09,0A5.5,5.5,0,0,0,2.59.39a3.68,3.68,0,0,0-1.33.87A3.68,3.68,0,0,0,.39,2.59,5.5,5.5,0,0,0,0,4.41c0,.8,0,1.06,0,3.09s0,2.29,0,3.09a5.5,5.5,0,0,0,.35,1.82,3.68,3.68,0,0,0,.87,1.33,3.68,3.68,0,0,0,1.33.87A5.5,5.5,0,0,0,4.41,15c.8,0,1.06,0,3.09,0s2.29,0,3.09,0a5.5,5.5,0,0,0,1.82-.35,3.84,3.84,0,0,0,2.19-2.19A5.5,5.5,0,0,0,15,10.59c0-.8,0-1.06,0-3.09s0-2.29,0-3.09a5.5,5.5,0,0,0-.35-1.82,3.68,3.68,0,0,0-.87-1.33A3.68,3.68,0,0,0,12.41.39,5.5,5.5,0,0,0,10.59,0C9.79,0,9.54,0,7.5,0Z"/><path class="cls-3" d="M7.5,3.65A3.85,3.85,0,1,0,11.35,7.5,3.85,3.85,0,0,0,7.5,3.65ZM7.5,10A2.5,2.5,0,1,1,10,7.5,2.5,2.5,0,0,1,7.5,10Z"/><circle class="cls-3" cx="11.5" cy="3.5" r="0.9"/></g></g></svg>