<svg xmlns="http://www.w3.org/2000/svg" viewBox="0 0 15 15"><defs><style>.cls-1{fill:#231f20;}</style></defs><title>Asset 19</title><g id="Layer_2" data-name="Layer 2"><g id="Layer_1-2" data-name="Layer 1"><path class="cls-1" d="M13.89,0H1.11A1.09,1.09,0,0,0,0,1.08V13.92A1.1,1.1,0,0,0,1.11,15H13.89A1.1,1.1,0,0,0,15,13.92V1.08A1.1,1.1,0,0,0,13.89,0ZM4.45,12.78H2.22V5.62H4.45ZM3.34,4.65A1.29,1.29,0,1,1,4.63,3.36,1.29,1.29,0,0,1,3.34,4.65Zm9.45,8.14H10.56V9.3c0-.83,0-1.9-1.16-1.9s-1.33.9-1.33,1.84v3.54H5.85V5.62H8v1H8a2.34,2.34,0,0,1,2.11-1.16c2.25,0,2.67,1.48,2.67,3.41Z"/></g></g></svg>