<svg xmlns="http://www.w3.org/2000/svg" viewBox="0 0 388.21 40"><defs><style>.cls-1{fill:#929497;}.cls-2{fill:none;}.cls-3{fill:#003768;}.cls-4{fill:#333091;}.cls-5{fill:#a44398;}.cls-6{fill:#e54096;}.cls-7{fill:#f68e1e;}.cls-8{fill:#fe0;}.cls-9{fill:#73c067;}.cls-10{fill:#00adee;}</style></defs><title>Logo</title><g id="Layer_2" data-name="Layer 2"><g id="Layer_1-2" data-name="Layer 1"><path class="cls-1" d="M59.69,3.85,70.14,28,80.64,3.85l5.84,30.41H83.19L79.49,14.8h-.08L70.14,35.45,60.91,14.8h-.08l-3.7,19.46H53.85Z"/><path class="cls-1" d="M110.15,26.1l-3.47,8.17h-3.51L116.44,4.12l12.94,30.14h-3.55l-3.4-8.17Zm6.22-14.5-4.92,11.52h9.73Z"/><path class="cls-1" d="M159.47,11.1c-1.14-2-2.52-3.13-5-3.13a4.57,4.57,0,0,0-4.77,4.46c0,2.48,2.56,3.62,4.5,4.5l1.91.84c3.74,1.64,6.91,3.51,6.91,8.09a9.08,9.08,0,0,1-18,1.45l3.13-.88a5.93,5.93,0,0,0,5.76,5.34,5.78,5.78,0,0,0,5.91-5.61c0-3.36-2.63-4.5-5.3-5.72l-1.76-.76c-3.36-1.53-6.26-3.24-6.26-7.36,0-4.46,3.78-7.33,8.05-7.33A8.26,8.26,0,0,1,162,9.46Z"/><path class="cls-1" d="M195.14,11.1c-1.14-2-2.52-3.13-5-3.13a4.56,4.56,0,0,0-4.77,4.46c0,2.48,2.56,3.62,4.5,4.5l1.91.84c3.74,1.64,6.91,3.51,6.91,8.09a9.08,9.08,0,0,1-18,1.45l3.13-.88a5.93,5.93,0,0,0,5.76,5.34,5.78,5.78,0,0,0,5.91-5.61c0-3.36-2.63-4.5-5.3-5.72l-1.76-.76c-3.36-1.53-6.26-3.24-6.26-7.36C182.21,7.86,186,5,190.26,5a8.26,8.26,0,0,1,7.44,4.46Z"/><path class="cls-1" d="M221.23,3.85,231.68,28,242.17,3.85,248,34.26h-3.28L241,14.8H241l-9.27,20.64L222.45,14.8h-.08l-3.7,19.46h-3.28Z"/><path class="cls-1" d="M266.46,5.49h14.92v3H269.67V17H281v3H269.67V31.29h11.71v3H266.46Z"/><path class="cls-1" d="M300.59,5.49H306c4.31,0,7.82.57,11.22,3.47a13.93,13.93,0,0,1,4.77,11,13.88,13.88,0,0,1-4.69,10.72c-3.43,3.05-6.87,3.63-11.37,3.63h-5.34Zm5.53,25.79c3.51,0,6.45-.5,9.08-3a11.39,11.39,0,0,0,3.59-8.43A11.35,11.35,0,0,0,315,11.26c-2.63-2.33-5.53-2.79-8.93-2.79h-2.33V31.29Z"/><path class="cls-1" d="M344.43,34.26h-3.2V5.49h3.2Z"/><path class="cls-1" d="M369,26.1l-3.47,8.17H362L375.28,4.12l12.94,30.14h-3.55l-3.4-8.17Zm6.22-14.5-4.92,11.52H380Z"/><polygon class="cls-2" points="25.05 14.93 26.58 14.33 26.43 13.57 25.65 13.42 25.05 14.93"/><polygon class="cls-2" points="25.07 25.05 25.67 26.58 26.43 26.43 26.58 25.65 25.07 25.05"/><polygon class="cls-2" points="19.99 12.84 20.64 11.34 20 10.9 19.34 11.35 19.99 12.84"/><polygon class="cls-2" points="14.93 14.95 14.33 13.42 13.57 13.57 13.42 14.35 14.93 14.95"/><polygon class="cls-2" points="20.01 27.16 19.36 28.66 20 29.1 20.66 28.65 20.01 27.16"/><polygon class="cls-2" points="27.16 19.99 28.66 20.64 29.1 20 28.65 19.34 27.16 19.99"/><polygon class="cls-2" points="14.95 25.07 13.42 25.67 13.57 26.43 14.35 26.58 14.95 25.07"/><polygon class="cls-2" points="12.84 20.01 11.34 19.36 10.9 20 11.35 20.66 12.84 20.01"/><polygon class="cls-3" points="25.57 0 22.45 7.18 26.43 4.48 25.57 0"/><polygon class="cls-3" points="13.57 13.57 12.13 13.84 13.42 14.35 13.57 13.57"/><polygon class="cls-3" points="14.43 0 13.57 4.48 17.53 7.17 14.43 0"/><polygon class="cls-3" points="18.48 9.87 16.19 8.31 17.26 10.7 18.48 9.87"/><polygon class="cls-3" points="12.67 9.2 12.11 12.11 13.69 11.8 12.67 9.2"/><polygon class="cls-3" points="26.55 6.5 26.52 6.47 25.25 7.33 25.57 9.04 26.55 6.5"/><polygon class="cls-3" points="27.89 12.11 27.33 9.18 26.29 11.8 27.89 12.11"/><polygon class="cls-3" points="23.8 8.32 21.52 9.87 22.73 10.69 23.8 8.32"/><polygon class="cls-3" points="27.84 13.83 26.43 13.57 26.58 14.33 27.84 13.83"/><polygon class="cls-3" points="13.48 6.47 13.45 6.5 14.43 9.05 14.75 7.33 13.48 6.47"/><polygon class="cls-3" points="19.99 12.84 19.34 11.35 17.97 12.28 19.99 16.8 22.02 12.28 20.64 11.34 19.99 12.84"/><polygon class="cls-4" points="1.92 9.79 4.48 13.57 9.18 12.67 1.92 9.79"/><polygon class="cls-4" points="11.76 13.91 9.04 14.43 11.48 15.36 11.76 13.91"/><polygon class="cls-4" points="14.93 14.95 13.42 14.35 13.11 15.98 17.73 17.74 15.97 13.11 14.33 13.42 14.93 14.95"/><polygon class="cls-4" points="9.8 1.92 12.67 9.2 13.57 4.48 9.8 1.92"/><polygon class="cls-4" points="20 8.84 17.53 7.17 18.65 9.75 20 8.84"/><polygon class="cls-4" points="7.17 17.55 8.84 20 9.74 18.66 7.17 17.55"/><polygon class="cls-4" points="10.9 20 10.08 21.2 11.35 20.66 10.9 20"/><polygon class="cls-4" points="21.18 10.1 20 10.9 20.64 11.34 21.18 10.1"/><polygon class="cls-4" points="5.82 15.04 5.82 15.08 8.32 16.2 7.33 14.75 5.82 15.04"/><polygon class="cls-4" points="14.43 9.05 13.91 11.76 15.35 11.48 14.43 9.05"/><polygon class="cls-4" points="15.08 5.82 15.04 5.82 14.75 7.33 16.19 8.31 15.08 5.82"/><polygon class="cls-4" points="13.91 11.76 14.43 9.05 13.45 6.5 13.48 6.47 14.75 7.33 15.04 5.82 15.08 5.82 16.19 8.31 18.48 9.87 18.65 9.75 17.53 7.17 13.57 4.48 12.67 9.2 13.69 11.8 13.91 11.76"/><polygon class="cls-4" points="13.11 15.98 13.42 14.35 12.13 13.84 11.76 13.91 11.48 15.36 13.11 15.98"/><polygon class="cls-4" points="22.02 12.28 22.73 10.69 21.52 9.87 21.18 10.1 20.64 11.34 22.02 12.28"/><polygon class="cls-5" points="12.84 20.01 11.35 20.66 12.28 22.03 16.8 20.01 12.28 17.98 11.34 19.36 12.84 20.01"/><polygon class="cls-5" points="9.87 21.52 8.31 23.81 10.7 22.74 9.87 21.52"/><polygon class="cls-5" points="8.32 16.2 9.87 18.48 10.69 17.27 8.32 16.2"/><polygon class="cls-5" points="13.83 12.16 13.57 13.57 14.33 13.42 13.83 12.16"/><polygon class="cls-5" points="12.11 12.11 9.18 12.67 11.8 13.71 12.11 12.11"/><polygon class="cls-5" points="6.5 13.45 6.47 13.48 7.33 14.75 9.04 14.43 6.5 13.45"/><polygon class="cls-5" points="0 25.57 4.48 26.43 7.16 22.47 0 25.57"/><polygon class="cls-5" points="9.2 27.33 12.11 27.89 11.8 26.31 9.2 27.33"/><polygon class="cls-5" points="13.57 26.43 13.84 27.86 14.35 26.58 13.57 26.43"/><polygon class="cls-5" points="6.47 26.52 6.5 26.55 9.05 25.57 7.33 25.25 6.47 26.52"/><polygon class="cls-5" points="0 14.43 7.17 17.55 4.48 13.57 0 14.43"/><polygon class="cls-5" points="12.13 13.84 13.57 13.57 13.83 12.16 13.69 11.8 12.11 12.11 11.8 13.71 12.13 13.84"/><polygon class="cls-5" points="15.97 13.11 15.35 11.48 13.91 11.76 13.83 12.16 14.33 13.42 15.97 13.11"/><polygon class="cls-5" points="12.28 22.03 11.35 20.66 10.08 21.2 9.87 21.52 10.7 22.74 12.28 22.03"/><polygon class="cls-5" points="9.87 18.48 8.32 16.2 5.82 15.08 5.82 15.04 7.33 14.75 6.47 13.48 6.5 13.45 9.04 14.43 11.76 13.91 11.8 13.71 9.18 12.67 4.48 13.57 7.17 17.55 9.74 18.66 9.87 18.48"/><polygon class="cls-5" points="11.8 13.71 11.76 13.91 12.13 13.84 11.8 13.71"/><polygon class="cls-5" points="13.69 11.8 13.83 12.16 13.91 11.76 13.69 11.8"/><polygon class="cls-6" points="20 29.1 21.2 29.92 20.66 28.65 20 29.1"/><polygon class="cls-6" points="15.04 34.18 15.08 34.18 16.2 31.68 14.75 32.67 15.04 34.18"/><polygon class="cls-6" points="10.1 18.82 10.9 20 11.34 19.36 10.1 18.82"/><polygon class="cls-6" points="8.84 20 7.16 22.47 9.75 21.35 8.84 20"/><polygon class="cls-6" points="17.55 32.82 20 31.16 18.66 30.26 17.55 32.82"/><polygon class="cls-6" points="1.92 30.2 9.2 27.33 4.48 26.43 1.92 30.2"/><polygon class="cls-6" points="9.05 25.57 11.76 26.09 11.48 24.65 9.05 25.57"/><polygon class="cls-6" points="5.82 24.92 5.82 24.96 7.33 25.25 8.31 23.81 5.82 24.92"/><polygon class="cls-6" points="13.91 28.24 14.43 30.96 15.36 28.52 13.91 28.24"/><polygon class="cls-6" points="9.8 38.08 13.57 35.52 12.67 30.82 9.8 38.08"/><polygon class="cls-6" points="14.95 25.07 14.35 26.58 15.98 26.89 17.74 22.27 13.11 24.03 13.42 25.67 14.95 25.07"/><polygon class="cls-6" points="10.08 21.2 10.9 20 10.1 18.82 9.74 18.66 8.84 20 9.75 21.35 10.08 21.2"/><polygon class="cls-6" points="15.98 26.89 14.35 26.58 13.84 27.86 13.91 28.24 15.36 28.52 15.98 26.89"/><polygon class="cls-6" points="11.76 26.09 9.05 25.57 6.5 26.55 6.47 26.52 7.33 25.25 5.82 24.96 5.82 24.92 8.31 23.81 9.87 21.52 9.75 21.35 7.16 22.47 4.48 26.43 9.2 27.33 11.8 26.31 11.76 26.09"/><polygon class="cls-6" points="12.28 17.98 10.69 17.27 9.87 18.48 10.1 18.82 11.34 19.36 12.28 17.98"/><polygon class="cls-6" points="9.74 18.66 10.1 18.82 9.87 18.48 9.74 18.66"/><polygon class="cls-6" points="9.75 21.35 9.87 21.52 10.08 21.2 9.75 21.35"/><polygon class="cls-7" points="20.01 27.16 20.66 28.65 22.03 27.72 20.01 23.2 17.98 27.72 19.36 28.66 20.01 27.16"/><polygon class="cls-7" points="16.2 31.68 18.48 30.13 17.27 29.31 16.2 31.68"/><polygon class="cls-7" points="21.52 30.13 23.81 31.69 22.74 29.3 21.52 30.13"/><polygon class="cls-7" points="14.43 40 17.55 32.82 13.57 35.52 14.43 40"/><polygon class="cls-7" points="12.16 26.17 13.57 26.43 13.42 25.67 12.16 26.17"/><polygon class="cls-7" points="13.45 33.51 13.48 33.53 14.75 32.67 14.43 30.96 13.45 33.51"/><polygon class="cls-7" points="27.34 30.8 27.89 27.89 26.31 28.2 27.34 30.8"/><polygon class="cls-7" points="25.57 40 26.43 35.52 22.47 32.84 25.57 40"/><polygon class="cls-7" points="12.11 27.89 12.67 30.82 13.71 28.2 12.11 27.89"/><polygon class="cls-7" points="26.52 33.53 26.55 33.51 25.57 30.95 25.25 32.67 26.52 33.53"/><polygon class="cls-7" points="26.43 26.43 27.86 26.16 26.58 25.65 26.43 26.43"/><polygon class="cls-7" points="13.84 27.86 13.57 26.43 12.16 26.17 11.8 26.31 12.11 27.89 13.71 28.2 13.84 27.86"/><polygon class="cls-7" points="18.48 30.13 16.2 31.68 15.08 34.18 15.04 34.18 14.75 32.67 13.48 33.53 13.45 33.51 14.43 30.96 13.91 28.24 13.71 28.2 12.67 30.82 13.57 35.52 17.55 32.82 18.66 30.26 18.48 30.13"/><polygon class="cls-7" points="22.03 27.72 20.66 28.65 21.2 29.92 21.52 30.13 22.74 29.3 22.03 27.72"/><polygon class="cls-7" points="13.11 24.03 11.48 24.65 11.76 26.09 12.16 26.17 13.42 25.67 13.11 24.03"/><polygon class="cls-7" points="11.8 26.31 12.16 26.17 11.76 26.09 11.8 26.31"/><polygon class="cls-7" points="13.71 28.2 13.91 28.24 13.84 27.86 13.71 28.2"/><polygon class="cls-8" points="38.08 30.2 35.52 26.43 30.82 27.33 38.08 30.2"/><polygon class="cls-8" points="30.2 38.08 27.34 30.8 26.43 35.52 30.2 38.08"/><polygon class="cls-8" points="29.1 20 29.92 18.8 28.65 19.34 29.1 20"/><polygon class="cls-8" points="20 31.16 22.47 32.84 21.35 30.25 20 31.16"/><polygon class="cls-8" points="25.57 30.95 26.09 28.24 24.65 28.52 25.57 30.95"/><polygon class="cls-8" points="34.18 24.96 34.18 24.92 31.68 23.8 32.67 25.25 34.18 24.96"/><polygon class="cls-8" points="25.07 25.05 26.58 25.65 26.89 24.02 22.27 22.26 24.03 26.89 25.67 26.58 25.07 25.05"/><polygon class="cls-8" points="28.24 26.09 30.96 25.57 28.52 24.64 28.24 26.09"/><polygon class="cls-8" points="18.82 29.9 20 29.1 19.36 28.66 18.82 29.9"/><polygon class="cls-8" points="32.82 22.45 31.16 20 30.26 21.34 32.82 22.45"/><polygon class="cls-8" points="24.92 34.18 24.96 34.18 25.25 32.67 23.81 31.69 24.92 34.18"/><polygon class="cls-8" points="21.2 29.92 20 29.1 18.82 29.9 18.66 30.26 20 31.16 21.35 30.25 21.2 29.92"/><polygon class="cls-8" points="26.09 28.24 25.57 30.95 26.55 33.51 26.52 33.53 25.25 32.67 24.96 34.18 24.92 34.18 23.81 31.69 21.52 30.13 21.35 30.25 22.47 32.84 26.43 35.52 27.34 30.8 26.31 28.2 26.09 28.24"/><polygon class="cls-8" points="17.98 27.72 17.27 29.31 18.48 30.13 18.82 29.9 19.36 28.66 17.98 27.72"/><polygon class="cls-8" points="26.89 24.02 26.58 25.65 27.86 26.16 28.24 26.09 28.52 24.64 26.89 24.02"/><polygon class="cls-8" points="18.66 30.26 18.82 29.9 18.48 30.13 18.66 30.26"/><polygon class="cls-8" points="21.35 30.25 21.52 30.13 21.2 29.92 21.35 30.25"/><polygon class="cls-9" points="40 14.43 35.52 13.57 32.84 17.53 40 14.43"/><polygon class="cls-9" points="33.5 26.55 33.53 26.52 32.67 25.25 30.96 25.57 33.5 26.55"/><polygon class="cls-9" points="27.89 27.89 30.82 27.33 28.2 26.29 27.89 27.89"/><polygon class="cls-9" points="26.17 27.84 26.43 26.43 25.67 26.58 26.17 27.84"/><polygon class="cls-9" points="30.13 18.48 31.69 16.19 29.3 17.26 30.13 18.48"/><polygon class="cls-9" points="31.68 23.8 30.13 21.52 29.31 22.73 31.68 23.8"/><polygon class="cls-9" points="28.65 19.34 27.72 17.97 23.2 19.99 27.72 22.02 28.66 20.64 27.16 19.99 28.65 19.34"/><polygon class="cls-9" points="30.8 12.67 27.89 12.11 28.2 13.69 30.8 12.67"/><polygon class="cls-9" points="33.53 13.48 33.5 13.45 30.95 14.43 32.67 14.75 33.53 13.48"/><polygon class="cls-9" points="32.82 22.45 35.52 26.43 40 25.57 32.82 22.45"/><polygon class="cls-9" points="26.43 13.57 26.16 12.14 25.65 13.42 26.43 13.57"/><polygon class="cls-9" points="26.16 12.14 26.43 13.57 27.84 13.83 28.2 13.69 27.89 12.11 26.29 11.8 26.16 12.14"/><polygon class="cls-9" points="27.86 26.16 26.43 26.43 26.17 27.84 26.31 28.2 27.89 27.89 28.2 26.29 27.86 26.16"/><polygon class="cls-9" points="24.03 26.89 24.65 28.52 26.09 28.24 26.17 27.84 25.67 26.58 24.03 26.89"/><polygon class="cls-9" points="27.72 17.97 28.65 19.34 29.92 18.8 30.13 18.48 29.3 17.26 27.72 17.97"/><polygon class="cls-9" points="30.26 21.34 30.13 21.52 31.68 23.8 34.18 24.92 34.18 24.96 32.67 25.25 33.53 26.52 33.5 26.55 30.96 25.57 28.24 26.09 28.2 26.29 30.82 27.33 35.52 26.43 32.82 22.45 30.26 21.34"/><polygon class="cls-9" points="28.2 26.29 28.24 26.09 27.86 26.16 28.2 26.29"/><polygon class="cls-9" points="26.31 28.2 26.17 27.84 26.09 28.24 26.31 28.2"/><polygon class="cls-10" points="31.16 20 32.84 17.53 30.25 18.65 31.16 20"/><polygon class="cls-10" points="30.2 1.92 26.43 4.48 27.33 9.18 30.2 1.92"/><polygon class="cls-10" points="22.45 7.18 20 8.84 21.34 9.74 22.45 7.18"/><polygon class="cls-10" points="38.08 9.8 30.8 12.67 35.52 13.57 38.08 9.8"/><polygon class="cls-10" points="25.05 14.93 25.65 13.42 24.02 13.11 22.26 17.73 26.89 15.97 26.58 14.33 25.05 14.93"/><polygon class="cls-10" points="29.9 21.18 29.1 20 28.66 20.64 29.9 21.18"/><polygon class="cls-10" points="30.95 14.43 28.24 13.91 28.52 15.35 30.95 14.43"/><polygon class="cls-10" points="34.18 15.08 34.18 15.04 32.67 14.75 31.69 16.19 34.18 15.08"/><polygon class="cls-10" points="24.96 5.82 24.92 5.82 23.8 8.32 25.25 7.33 24.96 5.82"/><polygon class="cls-10" points="20 10.9 18.8 10.08 19.34 11.35 20 10.9"/><polygon class="cls-10" points="26.09 11.76 25.57 9.04 24.64 11.48 26.09 11.76"/><polygon class="cls-10" points="21.52 9.87 23.8 8.32 24.92 5.82 24.96 5.82 25.25 7.33 26.52 6.47 26.55 6.5 25.57 9.04 26.09 11.76 26.29 11.8 27.33 9.18 26.43 4.48 22.45 7.18 21.34 9.74 21.52 9.87"/><polygon class="cls-10" points="17.97 12.28 19.34 11.35 18.8 10.08 18.48 9.87 17.26 10.7 17.97 12.28"/><polygon class="cls-10" points="26.89 15.97 28.52 15.35 28.24 13.91 27.84 13.83 26.58 14.33 26.89 15.97"/><polygon class="cls-10" points="18.8 10.08 20 10.9 21.18 10.1 21.34 9.74 20 8.84 18.65 9.75 18.8 10.08"/><polygon class="cls-10" points="21.34 9.74 21.18 10.1 21.52 9.87 21.34 9.74"/><polygon class="cls-10" points="18.65 9.75 18.48 9.87 18.8 10.08 18.65 9.75"/><polygon class="cls-10" points="29.92 18.8 29.1 20 29.9 21.18 30.26 21.34 31.16 20 30.25 18.65 29.92 18.8"/><polygon class="cls-10" points="28.66 20.64 27.72 22.02 29.31 22.73 30.13 21.52 29.9 21.18 28.66 20.64"/><polygon class="cls-10" points="28.24 13.91 30.95 14.43 33.5 13.45 33.53 13.48 32.67 14.75 34.18 15.04 34.18 15.08 31.69 16.19 30.13 18.48 30.25 18.65 32.84 17.53 35.52 13.57 30.8 12.67 28.2 13.69 28.24 13.91"/><polygon class="cls-10" points="24.02 13.11 25.65 13.42 26.16 12.14 26.09 11.76 24.64 11.48 24.02 13.11"/><polygon class="cls-10" points="28.2 13.69 27.84 13.83 28.24 13.91 28.2 13.69"/><polygon class="cls-10" points="26.29 11.8 26.09 11.76 26.16 12.14 26.29 11.8"/><polygon class="cls-10" points="30.25 18.65 30.13 18.48 29.92 18.8 30.25 18.65"/><polygon class="cls-10" points="30.13 21.52 30.26 21.34 29.9 21.18 30.13 21.52"/></g></g></svg>