<svg xmlns="http://www.w3.org/2000/svg" viewBox="0 0 141.16 196.17"><defs><style>.cls-1,.cls-3{fill:none;}.cls-1{stroke:#fff;stroke-miterlimit:10;stroke-width:19px;}.cls-2{fill:#fad008;}.cls-4{fill:#003768;}.cls-5{fill:#333091;}.cls-6{fill:#a44398;}.cls-7{fill:#e54096;}.cls-8{fill:#f68e1e;}.cls-9{fill:#fe0;}.cls-10{fill:#73c067;}.cls-11{fill:#00adee;}</style></defs><title>Asset 11</title><g id="Layer_2" data-name="Layer 2"><g id="Layer_1-2" data-name="Layer 1"><polygon class="cls-1" points="131.66 11.58 131.66 130.64 84.87 139.96 76.56 170.13 63.29 144.26 9.5 154.98 9.5 35.93 131.66 11.58"/><polygon class="cls-2" points="131.66 11.58 131.66 130.64 84.87 139.96 76.56 170.13 63.29 144.26 9.5 154.98 9.5 35.93 131.66 11.58"/><polygon class="cls-3" points="82.89 72.44 86.6 71.01 86.25 69.2 84.35 68.85 82.89 72.44"/><polygon class="cls-3" points="82.93 96.44 84.39 100.06 86.25 99.71 86.61 97.86 82.93 96.44"/><polygon class="cls-3" points="70.57 67.48 72.16 63.92 70.6 62.88 69 63.94 70.57 67.48"/><polygon class="cls-3" points="58.26 72.47 56.8 68.86 54.94 69.2 54.58 71.05 58.26 72.47"/><polygon class="cls-3" points="70.62 101.43 69.03 105 70.59 106.03 72.19 104.97 70.62 101.43"/><polygon class="cls-3" points="88.01 84.43 91.67 85.98 92.73 84.46 91.64 82.9 88.01 84.43"/><polygon class="cls-3" points="58.3 96.48 54.59 97.9 54.94 99.71 56.84 100.06 58.3 96.48"/><polygon class="cls-3" points="53.18 84.48 49.52 82.93 48.46 84.46 49.55 86.01 53.18 84.48"/><polygon class="cls-4" points="84.15 37.03 76.56 54.05 86.24 47.65 84.15 37.03"/><polygon class="cls-4" points="54.94 69.2 51.46 69.84 54.58 71.05 54.94 69.2"/><polygon class="cls-4" points="57.05 37.03 54.95 47.65 64.59 54.02 57.05 37.03"/><polygon class="cls-4" points="66.9 60.43 61.33 56.74 63.93 62.39 66.9 60.43"/><polygon class="cls-4" points="52.75 58.84 51.39 65.74 55.25 65.02 52.75 58.84"/><polygon class="cls-4" points="86.52 52.43 86.45 52.36 83.36 54.41 84.16 58.47 86.52 52.43"/><polygon class="cls-4" points="89.8 65.74 88.43 58.8 85.91 65.01 89.8 65.74"/><polygon class="cls-4" points="79.84 56.75 74.29 60.43 77.25 62.38 79.84 56.75"/><polygon class="cls-4" points="89.67 69.83 86.25 69.2 86.6 71.01 89.67 69.83"/><polygon class="cls-4" points="54.74 52.36 54.66 52.43 57.03 58.5 57.83 54.41 54.74 52.36"/><polygon class="cls-4" points="70.57 67.48 69 63.94 65.66 66.16 70.57 76.86 75.51 66.14 72.16 63.92 70.57 67.48"/><polygon class="cls-5" points="26.6 60.26 32.83 69.21 44.26 67.07 26.6 60.26"/><polygon class="cls-5" points="50.55 70.01 43.93 71.24 49.87 73.45 50.55 70.01"/><polygon class="cls-5" points="58.26 72.47 54.58 71.05 53.83 74.92 65.07 79.1 60.78 68.12 56.8 68.86 58.26 72.47"/><polygon class="cls-5" points="45.77 41.58 52.75 58.84 54.95 47.65 45.77 41.58"/><polygon class="cls-5" points="70.6 57.98 64.59 54.02 67.32 60.15 70.6 57.98"/><polygon class="cls-5" points="39.39 78.64 43.43 84.45 45.64 81.29 39.39 78.64"/><polygon class="cls-5" points="48.46 84.46 46.46 87.31 49.55 86.01 48.46 84.46"/><polygon class="cls-5" points="73.47 60.97 70.6 62.88 72.16 63.92 73.47 60.97"/><polygon class="cls-5" points="36.1 72.69 36.09 72.79 42.17 75.45 39.77 72.01 36.1 72.69"/><polygon class="cls-5" points="57.03 58.5 55.78 64.92 59.28 64.26 57.03 58.5"/><polygon class="cls-5" points="58.63 50.83 58.52 50.83 57.83 54.41 61.33 56.74 58.63 50.83"/><polygon class="cls-5" points="55.78 64.92 57.03 58.5 54.66 52.43 54.74 52.36 57.83 54.41 58.52 50.83 58.63 50.83 61.33 56.74 66.9 60.43 67.32 60.15 64.59 54.02 54.95 47.65 52.75 58.84 55.25 65.02 55.78 64.92"/><polygon class="cls-5" points="53.83 74.92 54.58 71.05 51.46 69.84 50.55 70.01 49.87 73.45 53.83 74.92"/><polygon class="cls-5" points="75.51 66.14 77.25 62.38 74.29 60.43 73.47 60.97 72.16 63.92 75.51 66.14"/><polygon class="cls-6" points="53.18 84.48 49.55 86.01 51.82 89.27 62.8 84.48 51.8 79.66 49.52 82.93 53.18 84.48"/><polygon class="cls-6" points="45.94 88.06 42.15 93.48 47.95 90.95 45.94 88.06"/><polygon class="cls-6" points="42.17 75.45 45.94 80.85 47.94 77.97 42.17 75.45"/><polygon class="cls-6" points="55.59 65.87 54.94 69.2 56.8 68.86 55.59 65.87"/><polygon class="cls-6" points="51.39 65.74 44.26 67.07 50.64 69.53 51.39 65.74"/><polygon class="cls-6" points="37.73 68.93 37.67 69 39.77 72.01 43.93 71.24 37.73 68.93"/><polygon class="cls-6" points="21.93 97.66 32.83 99.7 39.36 90.31 21.93 97.66"/><polygon class="cls-6" points="44.31 101.85 51.39 103.17 50.65 99.42 44.31 101.85"/><polygon class="cls-6" points="54.94 99.71 55.6 103.11 56.84 100.06 54.94 99.71"/><polygon class="cls-6" points="37.66 99.91 37.73 99.98 43.96 97.68 39.77 96.9 37.66 99.91"/><polygon class="cls-6" points="21.93 71.25 39.39 78.64 32.83 69.21 21.93 71.25"/><polygon class="cls-6" points="51.46 69.84 54.94 69.2 55.59 65.87 55.25 65.02 51.39 65.74 50.64 69.53 51.46 69.84"/><polygon class="cls-6" points="60.78 68.12 59.28 64.26 55.78 64.92 55.59 65.87 56.8 68.86 60.78 68.12"/><polygon class="cls-6" points="51.82 89.27 49.55 86.01 46.46 87.31 45.94 88.06 47.95 90.95 51.82 89.27"/><polygon class="cls-6" points="45.94 80.85 42.17 75.45 36.09 72.79 36.1 72.69 39.77 72.01 37.67 69 37.73 68.93 43.93 71.24 50.55 70.01 50.64 69.53 44.26 67.07 32.83 69.21 39.39 78.64 45.64 81.29 45.94 80.85"/><polygon class="cls-6" points="50.64 69.53 50.55 70.01 51.46 69.84 50.64 69.53"/><polygon class="cls-6" points="55.25 65.02 55.59 65.87 55.78 64.92 55.25 65.02"/><polygon class="cls-7" points="70.59 106.03 73.53 107.98 72.19 104.97 70.59 106.03"/><polygon class="cls-7" points="58.52 118.08 58.63 118.08 61.35 112.16 57.83 114.5 58.52 118.08"/><polygon class="cls-7" points="46.5 81.65 48.46 84.46 49.52 82.93 46.5 81.65"/><polygon class="cls-7" points="43.43 84.45 39.36 90.31 45.66 87.65 43.43 84.45"/><polygon class="cls-7" points="64.63 114.87 70.59 110.93 67.34 108.78 64.63 114.87"/><polygon class="cls-7" points="26.6 108.66 44.31 101.85 32.83 99.7 26.6 108.66"/><polygon class="cls-7" points="43.96 97.68 50.55 98.9 49.87 95.48 43.96 97.68"/><polygon class="cls-7" points="36.1 96.12 36.1 96.22 39.77 96.9 42.15 93.48 36.1 96.12"/><polygon class="cls-7" points="55.78 103.99 57.03 110.44 59.3 104.65 55.78 103.99"/><polygon class="cls-7" points="45.77 127.33 54.95 121.27 52.76 110.12 45.77 127.33"/><polygon class="cls-7" points="58.3 96.48 56.84 100.06 60.81 100.8 65.1 89.84 53.83 94.02 54.59 97.9 58.3 96.48"/><polygon class="cls-7" points="46.46 87.31 48.46 84.46 46.5 81.65 45.64 81.29 43.43 84.45 45.66 87.65 46.46 87.31"/><polygon class="cls-7" points="60.81 100.8 56.84 100.06 55.6 103.11 55.78 103.99 59.3 104.65 60.81 100.8"/><polygon class="cls-7" points="50.55 98.9 43.96 97.68 37.73 99.98 37.66 99.91 39.77 96.9 36.1 96.22 36.1 96.12 42.15 93.48 45.94 88.06 45.66 87.65 39.36 90.31 32.83 99.7 44.31 101.85 50.65 99.42 50.55 98.9"/><polygon class="cls-7" points="51.8 79.66 47.94 77.97 45.94 80.85 46.5 81.65 49.52 82.93 51.8 79.66"/><polygon class="cls-7" points="45.64 81.29 46.5 81.65 45.94 80.85 45.64 81.29"/><polygon class="cls-7" points="45.66 87.65 45.94 88.06 46.46 87.31 45.66 87.65"/><polygon class="cls-8" points="70.62 101.43 72.19 104.97 75.53 102.76 70.62 92.05 65.68 102.77 69.03 105 70.62 101.43"/><polygon class="cls-8" points="61.35 112.16 66.9 108.49 63.95 106.54 61.35 112.16"/><polygon class="cls-8" points="74.29 108.48 79.86 112.18 77.26 106.52 74.29 108.48"/><polygon class="cls-8" points="57.04 131.89 64.63 114.87 54.95 121.27 57.04 131.89"/><polygon class="cls-8" points="51.52 99.08 54.94 99.71 54.59 97.9 51.52 99.08"/><polygon class="cls-8" points="54.66 116.48 54.74 116.55 57.83 114.5 57.03 110.44 54.66 116.48"/><polygon class="cls-8" points="88.44 110.07 89.8 103.18 85.94 103.9 88.44 110.07"/><polygon class="cls-8" points="84.15 131.89 86.24 121.27 76.6 114.9 84.15 131.89"/><polygon class="cls-8" points="51.39 103.17 52.76 110.12 55.28 103.9 51.39 103.17"/><polygon class="cls-8" points="86.45 116.55 86.53 116.48 84.16 110.42 83.36 114.5 86.45 116.55"/><polygon class="cls-8" points="86.25 99.71 89.73 99.07 86.61 97.86 86.25 99.71"/><polygon class="cls-8" points="55.6 103.11 54.94 99.71 51.52 99.08 50.65 99.42 51.39 103.17 55.28 103.9 55.6 103.11"/><polygon class="cls-8" points="66.9 108.49 61.35 112.16 58.63 118.08 58.52 118.08 57.83 114.5 54.74 116.55 54.66 116.48 57.03 110.44 55.78 103.99 55.28 103.9 52.76 110.12 54.95 121.27 64.63 114.87 67.34 108.78 66.9 108.49"/><polygon class="cls-8" points="75.53 102.76 72.19 104.97 73.53 107.98 74.29 108.48 77.26 106.52 75.53 102.76"/><polygon class="cls-8" points="53.83 94.02 49.87 95.48 50.55 98.9 51.52 99.08 54.59 97.9 53.83 94.02"/><polygon class="cls-8" points="50.65 99.42 51.52 99.08 50.55 98.9 50.65 99.42"/><polygon class="cls-8" points="55.28 103.9 55.78 103.99 55.6 103.11 55.28 103.9"/><polygon class="cls-9" points="114.59 108.66 108.36 99.7 96.93 101.84 114.59 108.66"/><polygon class="cls-9" points="95.42 127.33 88.44 110.07 86.24 121.27 95.42 127.33"/><polygon class="cls-9" points="92.73 84.46 94.73 81.6 91.64 82.9 92.73 84.46"/><polygon class="cls-9" points="70.59 110.93 76.6 114.9 73.87 108.76 70.59 110.93"/><polygon class="cls-9" points="84.16 110.42 85.41 104 81.91 104.65 84.16 110.42"/><polygon class="cls-9" points="105.09 96.22 105.09 96.12 99.02 93.46 101.42 96.9 105.09 96.22"/><polygon class="cls-9" points="82.93 96.44 86.61 97.86 87.36 93.99 76.13 89.81 80.41 100.79 84.39 100.06 82.93 96.44"/><polygon class="cls-9" points="90.64 98.9 97.26 97.67 91.32 95.46 90.64 98.9"/><polygon class="cls-9" points="67.72 107.94 70.59 106.03 69.03 105 67.72 107.94"/><polygon class="cls-9" points="101.8 90.27 97.76 84.46 95.55 87.63 101.8 90.27"/><polygon class="cls-9" points="82.57 118.08 82.67 118.08 83.36 114.5 79.86 112.18 82.57 118.08"/><polygon class="cls-9" points="73.53 107.98 70.59 106.03 67.72 107.94 67.34 108.78 70.59 110.93 73.87 108.76 73.53 107.98"/><polygon class="cls-9" points="85.41 104 84.16 110.42 86.53 116.48 86.45 116.55 83.36 114.5 82.67 118.08 82.57 118.08 79.86 112.18 74.29 108.48 73.87 108.76 76.6 114.9 86.24 121.27 88.44 110.07 85.94 103.9 85.41 104"/><polygon class="cls-9" points="65.68 102.77 63.95 106.54 66.9 108.49 67.72 107.94 69.03 105 65.68 102.77"/><polygon class="cls-9" points="87.36 93.99 86.61 97.86 89.73 99.07 90.64 98.9 91.32 95.46 87.36 93.99"/><polygon class="cls-9" points="67.34 108.78 67.72 107.94 66.9 108.49 67.34 108.78"/><polygon class="cls-9" points="73.87 108.76 74.29 108.48 73.53 107.98 73.87 108.76"/><polygon class="cls-10" points="119.26 71.25 108.36 69.21 101.83 78.6 119.26 71.25"/><polygon class="cls-10" points="103.45 99.98 103.53 99.91 101.42 96.9 97.26 97.67 103.45 99.98"/><polygon class="cls-10" points="89.8 103.18 96.93 101.84 90.55 99.38 89.8 103.18"/><polygon class="cls-10" points="85.6 103.05 86.25 99.71 84.39 100.06 85.6 103.05"/><polygon class="cls-10" points="95.25 80.85 99.04 75.43 93.23 77.96 95.25 80.85"/><polygon class="cls-10" points="99.02 93.46 95.25 88.06 93.25 90.94 99.02 93.46"/><polygon class="cls-10" points="91.64 82.9 89.37 79.64 78.39 84.43 89.39 89.25 91.67 85.98 88.01 84.43 91.64 82.9"/><polygon class="cls-10" points="96.88 67.06 89.8 65.74 90.54 69.5 96.88 67.06"/><polygon class="cls-10" points="103.53 69 103.45 68.93 97.23 71.23 101.42 72.01 103.53 69"/><polygon class="cls-10" points="101.8 90.27 108.36 99.7 119.26 97.67 101.8 90.27"/><polygon class="cls-10" points="86.25 69.2 85.59 65.81 84.35 68.85 86.25 69.2"/><polygon class="cls-10" points="85.59 65.81 86.25 69.2 89.67 69.83 90.54 69.5 89.8 65.74 85.91 65.01 85.59 65.81"/><polygon class="cls-10" points="89.73 99.07 86.25 99.71 85.6 103.05 85.94 103.9 89.8 103.18 90.55 99.38 89.73 99.07"/><polygon class="cls-10" points="80.41 100.79 81.91 104.65 85.41 104 85.6 103.05 84.39 100.06 80.41 100.79"/><polygon class="cls-10" points="89.37 79.64 91.64 82.9 94.73 81.6 95.25 80.85 93.23 77.96 89.37 79.64"/><polygon class="cls-10" points="95.55 87.63 95.25 88.06 99.02 93.46 105.09 96.12 105.09 96.22 101.42 96.9 103.53 99.91 103.45 99.98 97.26 97.67 90.64 98.9 90.55 99.38 96.93 101.84 108.36 99.7 101.8 90.27 95.55 87.63"/><polygon class="cls-10" points="90.55 99.38 90.64 98.9 89.73 99.07 90.55 99.38"/><polygon class="cls-10" points="85.94 103.9 85.6 103.05 85.41 104 85.94 103.9"/><polygon class="cls-11" points="97.76 84.46 101.83 78.6 95.53 81.26 97.76 84.46"/><polygon class="cls-11" points="95.42 41.58 86.24 47.65 88.43 58.8 95.42 41.58"/><polygon class="cls-11" points="76.56 54.05 70.6 57.98 73.84 60.13 76.56 54.05"/><polygon class="cls-11" points="114.59 60.26 96.88 67.06 108.36 69.21 114.59 60.26"/><polygon class="cls-11" points="82.89 72.44 84.35 68.85 80.38 68.11 76.09 79.07 87.36 74.89 86.6 71.01 82.89 72.44"/><polygon class="cls-11" points="94.69 87.26 92.73 84.46 91.67 85.98 94.69 87.26"/><polygon class="cls-11" points="97.23 71.23 90.64 70.01 91.31 73.43 97.23 71.23"/><polygon class="cls-11" points="105.09 72.79 105.09 72.69 101.42 72.01 99.04 75.43 105.09 72.79"/><polygon class="cls-11" points="82.67 50.83 82.57 50.83 79.84 56.75 83.36 54.41 82.67 50.83"/><polygon class="cls-11" points="70.6 62.88 67.66 60.94 69 63.94 70.6 62.88"/><polygon class="cls-11" points="85.41 64.92 84.16 58.47 81.89 64.26 85.41 64.92"/><polygon class="cls-11" points="74.29 60.43 79.84 56.75 82.57 50.83 82.67 50.83 83.36 54.41 86.45 52.36 86.52 52.43 84.16 58.47 85.41 64.92 85.91 65.01 88.43 58.8 86.24 47.65 76.56 54.05 73.84 60.13 74.29 60.43"/><polygon class="cls-11" points="65.66 66.16 69 63.94 67.66 60.94 66.9 60.43 63.93 62.39 65.66 66.16"/><polygon class="cls-11" points="87.36 74.89 91.31 73.43 90.64 70.01 89.67 69.83 86.6 71.01 87.36 74.89"/><polygon class="cls-11" points="67.66 60.94 70.6 62.88 73.47 60.97 73.84 60.13 70.6 57.98 67.32 60.15 67.66 60.94"/><polygon class="cls-11" points="73.84 60.13 73.47 60.97 74.29 60.43 73.84 60.13"/><polygon class="cls-11" points="67.32 60.15 66.9 60.43 67.66 60.94 67.32 60.15"/><polygon class="cls-11" points="94.73 81.6 92.73 84.46 94.69 87.26 95.55 87.63 97.76 84.46 95.53 81.26 94.73 81.6"/><polygon class="cls-11" points="91.67 85.98 89.39 89.25 93.25 90.94 95.25 88.06 94.69 87.26 91.67 85.98"/><polygon class="cls-11" points="90.64 70.01 97.23 71.23 103.45 68.93 103.53 69 101.42 72.01 105.09 72.69 105.09 72.79 99.04 75.43 95.25 80.85 95.53 81.26 101.83 78.6 108.36 69.21 96.88 67.06 90.54 69.5 90.64 70.01"/><polygon class="cls-11" points="80.38 68.11 84.35 68.85 85.59 65.81 85.41 64.92 81.89 64.26 80.38 68.11"/><polygon class="cls-11" points="90.54 69.5 89.67 69.83 90.64 70.01 90.54 69.5"/><polygon class="cls-11" points="85.91 65.01 85.41 64.92 85.59 65.81 85.91 65.01"/><polygon class="cls-11" points="95.53 81.26 95.25 80.85 94.73 81.6 95.53 81.26"/><polygon class="cls-11" points="95.25 88.06 95.55 87.63 94.69 87.26 95.25 88.06"/></g></g></svg>