<svg xmlns="http://www.w3.org/2000/svg" viewBox="0 0 18.46 15"><defs><style>.cls-1{fill:#231f20;}</style></defs><title>Asset 18</title><g id="Layer_2" data-name="Layer 2"><g id="Layer_1-2" data-name="Layer 1"><path class="cls-1" d="M5.8,15A10.7,10.7,0,0,0,16.58,4.23c0-.16,0-.33,0-.49a7.7,7.7,0,0,0,1.89-2,7.56,7.56,0,0,1-2.17.6A3.8,3.8,0,0,0,17.95.28a7.59,7.59,0,0,1-2.4.92A3.79,3.79,0,0,0,9.09,4.65a10.75,10.75,0,0,1-7.81-4A3.79,3.79,0,0,0,2.46,5.75,3.76,3.76,0,0,1,.74,5.28s0,0,0,0A3.79,3.79,0,0,0,3.78,9a3.78,3.78,0,0,1-1.71.06,3.79,3.79,0,0,0,3.54,2.63A7.6,7.6,0,0,1,.9,13.35,7.71,7.71,0,0,1,0,13.3,10.72,10.72,0,0,0,5.8,15"/></g></g></svg>